<svg width="24" height="24" viewBox="0 0 24 24" fill="none" xmlns="http://www.w3.org/2000/svg">
<g clip-path="url(#clip0_103_2)">
<path d="M17.622 3C15.709 3 15.064 4.382 11.999 4.382C8.99 4.382 8.253 3 6.376 3C1.167 3 0 13.375 0 17.348C0 19.493 0.817 21 2.469 21C5.927 21 5.395 16 9.384 16H14.614C18.603 16 18.071 21 21.529 21C23.181 21 24 19.494 24 17.349C24 13.376 22.831 3 17.622 3ZM7 13C5.343 13 4 11.657 4 10C4 8.343 5.343 7 7 7C8.657 7 10 8.343 10 10C10 11.657 8.657 13 7 13ZM17 7C17.552 7 18 7.447 18 8C18 8.553 17.552 9 17 9C16.448 9 16 8.553 16 8C16 7.447 16.448 7 17 7ZM15 11C14.448 11 14 10.553 14 10C14 9.447 14.448 9 15 9C15.552 9 16 9.447 16 10C16 10.553 15.552 11 15 11ZM17 13C16.448 13 16 12.553 16 12C16 11.447 16.448 11 17 11C17.552 11 18 11.447 18 12C18 12.553 17.552 13 17 13ZM19 11C18.448 11 18 10.553 18 10C18 9.447 18.448 9 19 9C19.552 9 20 9.447 20 10C20 10.553 19.552 11 19 11ZM8.75 10C8.75 10.965 7.965 11.75 7 11.75C6.035 11.75 5.25 10.965 5.25 10C5.25 9.035 6.035 8.25 7 8.25C7.965 8.25 8.75 9.035 8.75 10Z" fill="url(#paint0_linear_103_2)"/>
</g>
<defs>
<linearGradient id="paint0_linear_103_2" x1="12" y1="3" x2="12" y2="21" gradientUnits="userSpaceOnUse">
<stop stop-color="#5855D5"/>
<stop offset="1" stop-color="#D648AE"/>
</linearGradient>
<clipPath id="clip0_103_2">
<rect width="24" height="24" fill="white"/>
</clipPath>
</defs>
</svg>
